<?xml version="1.0" encoding="UTF-8"?>
<svg width="450.5mm" height="213.36mm" version="1.1" viewBox="0 0 450.5 213.36" xmlns="http://www.w3.org/2000/svg" xmlns:cc="http://creativecommons.org/ns#" xmlns:dc="http://purl.org/dc/elements/1.1/" xmlns:rdf="http://www.w3.org/1999/02/22-rdf-syntax-ns#">
 <defs>
  <marker id="marker6208" overflow="visible" orient="auto">
   <path transform="matrix(1.1,0,0,1.1,1.1,0)" d="m8.7186 4.0337-10.926-4.0177 10.926-4.0177c-1.7455 2.3721-1.7354 5.6175-6e-7 8.0354z" fill-rule="evenodd" stroke="#000" stroke-linejoin="round" stroke-width=".625"/>
  </marker>
  <marker id="EmptyTriangleOutL" overflow="visible" orient="auto">
   <path transform="matrix(.8 0 0 .8 -4.8 0)" d="m5.77 0-8.65 5v-10z" fill="#fff" fill-rule="evenodd" stroke="#969696" stroke-width="1pt"/>
  </marker>
  <marker id="marker2850" overflow="visible" orient="auto">
   <path transform="matrix(-.4 0 0 -.4 -4 0)" d="m0 0 5-5-17.5 5 17.5 5z" fill-rule="evenodd" stroke="#000" stroke-width="1pt"/>
  </marker>
  <marker id="marker2738" overflow="visible" orient="auto">
   <path transform="scale(.6)" d="m8.7186 4.0337-10.926-4.0177 10.926-4.0177c-1.7455 2.3721-1.7354 5.6175-6e-7 8.0354z" fill-rule="evenodd" stroke="#000" stroke-linejoin="round" stroke-width=".625"/>
  </marker>
  <marker id="marker2634" overflow="visible" orient="auto">
   <path transform="scale(.6)" d="m8.7186 4.0337-10.926-4.0177 10.926-4.0177c-1.7455 2.3721-1.7354 5.6175-6e-7 8.0354z" fill="#00f" fill-rule="evenodd" stroke="#00f" stroke-linejoin="round" stroke-width=".625"/>
  </marker>
  <marker id="Arrow2Mstart" overflow="visible" orient="auto">
   <path transform="scale(.6)" d="m8.7186 4.0337-10.926-4.0177 10.926-4.0177c-1.7455 2.3721-1.7354 5.6175-6e-7 8.0354z" fill="#00f" fill-rule="evenodd" stroke="#00f" stroke-linejoin="round" stroke-width=".625"/>
  </marker>
  <marker id="Arrow1Mend" overflow="visible" orient="auto">
   <path transform="matrix(-.4 0 0 -.4 -4 0)" d="m0 0 5-5-17.5 5 17.5 5z" fill="#00f" fill-rule="evenodd" stroke="#00f" stroke-width="1pt"/>
  </marker>
  <marker id="marker1493" overflow="visible" orient="auto">
   <path transform="matrix(1.1,0,0,1.1,1.1,0)" d="m8.7186 4.0337-10.926-4.0177 10.926-4.0177c-1.7455 2.3721-1.7354 5.6175-6e-7 8.0354z" fill-rule="evenodd" stroke="#000" stroke-linejoin="round" stroke-width=".625"/>
  </marker>
  <marker id="Arrow2Lstart" overflow="visible" orient="auto">
   <path transform="matrix(1.1,0,0,1.1,1.1,0)" d="m8.7186 4.0337-10.926-4.0177 10.926-4.0177c-1.7455 2.3721-1.7354 5.6175-6e-7 8.0354z" fill-rule="evenodd" stroke="#000" stroke-linejoin="round" stroke-width=".625"/>
  </marker>
  <marker id="Arrow1Lend" overflow="visible" orient="auto">
   <path transform="matrix(-.8 0 0 -.8 -10 0)" d="m0 0 5-5-17.5 5 17.5 5z" fill-rule="evenodd" stroke="#000" stroke-width="1pt"/>
  </marker>
  <marker id="marker1217" overflow="visible" orient="auto">
   <path transform="matrix(-1.1,0,0,-1.1,-1.1,0)" d="m8.7186 4.0337-10.926-4.0177 10.926-4.0177c-1.7455 2.3721-1.7354 5.6175-6e-7 8.0354z" fill-rule="evenodd" stroke="#000" stroke-linejoin="round" stroke-width=".625"/>
  </marker>
  <marker id="marker2634-1" overflow="visible" orient="auto">
   <path transform="scale(.6)" d="m8.7186 4.0337-10.926-4.0177 10.926-4.0177c-1.7455 2.3721-1.7354 5.6175-6e-7 8.0354z" fill="#00f" fill-rule="evenodd" stroke="#00f" stroke-linejoin="round" stroke-width=".625"/>
  </marker>
  <marker id="Arrow2Mstart-8" overflow="visible" orient="auto">
   <path transform="scale(.6)" d="m8.7186 4.0337-10.926-4.0177 10.926-4.0177c-1.7455 2.3721-1.7354 5.6175-6e-7 8.0354z" fill="#00f" fill-rule="evenodd" stroke="#00f" stroke-linejoin="round" stroke-width=".625"/>
  </marker>
  <marker id="Arrow1Mend-1" overflow="visible" orient="auto">
   <path transform="matrix(-.4 0 0 -.4 -4 0)" d="m0 0 5-5-17.5 5 17.5 5z" fill="#00f" fill-rule="evenodd" stroke="#00f" stroke-width="1pt"/>
  </marker>
 </defs>
 <metadata>
  <rdf:RDF>
   <cc:Work rdf:about="">
    <dc:format>image/svg+xml</dc:format>
    <dc:type rdf:resource="http://purl.org/dc/dcmitype/StillImage"/>
    <dc:title/>
   </cc:Work>
  </rdf:RDF>
 </metadata>
 <g transform="translate(-6.9837 7.7741)">
  <g fill="none">
   <g>
    <path d="m343.92 116.34c-0.32641 0.0856-0.62937 0.2589-0.86853 0.49695s-0.41391 0.54019-0.50099 0.8662c-0.13207 0.49446-0.0565 1.0396 0.19907 1.4831 0.25555 0.44343 0.68668 0.78097 1.1765 0.92945 0.39041 0.11836 0.81586 0.11836 1.2063 0" stroke="#000" stroke-width=".5"/>
    <path transform="scale(1,-1)" d="m214.34-27.785a54.051 40.821 0 0 1-60.261 13.837 54.051 40.821 0 0 1-36.698-38.661" stroke="#0001ff" stroke-miterlimit="10"/>
    <path d="m108.36 52.355h202.16" stroke="#000" stroke-width=".87787"/>
    <path d="m205.82 52.128 8.513-23.813v1e-6" stroke="#00f"/>
    <path transform="scale(-1)" d="m-214.33-27.779a42.289 40.889 0 0 1-47.148 13.86 42.289 40.889 0 0 1-28.713-38.725" stroke="#0001ff" stroke-miterlimit="10"/>
   </g>
   <g stroke="#000">
    <g>
     <path d="m213.94 52.602 0.38695-26.112" stroke-dasharray="4, 1"/>
     <g stroke-width=".26458px">
      <path d="m193.97 9.7603c6.547 4.4005 13.094 8.8007 19.64 13.201" marker-start="url(#marker1493)"/>
      <path d="m224.96 14.429-11.43 8.5322" marker-start="url(#Arrow2Lstart)"/>
      <path d="m210.39 28.274-5.4735 14.328" marker-end="url(#marker1217)"/>
     </g>
    </g>
    <rect x="211.77" y="49.669" width="4.5978" height="2.9487" stroke-miterlimit="10" stroke-width=".18777"/>
   </g>
  </g>
  <g fill="#000000" font-family="sans-serif" stroke-width=".26458">
   <g font-size="8.8194px">
    <text x="191.25598" y="5.9890847" style="line-height:1.25" xml:space="preserve"><tspan x="191.25598" y="5.9890847" font-family="'Times New Roman'" font-size="8.8194px" stroke-width=".26458">t<tspan baseline-shift="sub" font-size="65%">2</tspan></tspan></text>
    <text x="227.07179" y="10.724712" style="line-height:1.25" xml:space="preserve"><tspan x="227.07179" y="10.724712" font-family="'Times New Roman'" font-size="8.8194px" stroke-width=".26458">t<tspan baseline-shift="sub" font-size="65%">1</tspan></tspan></text>
    <text x="195.37303" y="44.556973" style="line-height:1.25" xml:space="preserve"><tspan x="195.37303" y="44.556973" font-family="'Times New Roman'" font-size="8.8194px" stroke-width=".26458">t<tspan baseline-shift="sub" font-size="65%">cc</tspan></tspan></text>
   </g>
   <text x="280.25916" y="49.155483" font-size="10.583px" style="line-height:1.25" xml:space="preserve"><tspan x="280.25916" y="49.155483" font-family="'Times New Roman'" font-size="8.8194px" stroke-width=".26458">α<tspan baseline-shift="sub" font-size="65%">1</tspan></tspan></text>
   <text x="119.39787" y="49.291874" font-size="10.583px" style="line-height:1.25" xml:space="preserve"><tspan x="119.39787" y="49.291874" font-family="'Times New Roman'" font-size="8.8194px" stroke-width=".26458">α<tspan baseline-shift="sub" font-size="65%">2</tspan></tspan></text>
  </g>
  <g fill="none" stroke="#00f">
   <path d="m10.922 97.709c8.8942 5.9781 17.788 11.956 26.681 17.933" marker-start="url(#marker2634)"/>
   <path d="m56.867 101.3-19.05 14.22" marker-start="url(#Arrow2Mstart)"/>
   <path d="m37.14 116.49-9.8861 25.878" marker-end="url(#Arrow1Mend)"/>
  </g>
  <g fill="#000000" font-family="sans-serif" font-size="8.8194px" stroke-width=".26458">
   <text x="16.93642" y="93.527794" style="line-height:1.25" xml:space="preserve"><tspan x="16.93642" y="93.527794" font-family="'Times New Roman'" font-size="8.8194px" stroke-width=".26458">t<tspan baseline-shift="sub" font-size="5.7326px" stroke-width=".26458">2</tspan></tspan></text>
   <text x="51.164726" y="97.734283" style="line-height:1.25" xml:space="preserve"><tspan x="51.164726" y="97.734283" font-family="'Times New Roman'" font-size="8.8194px" stroke-width=".26458">t<tspan baseline-shift="sub" font-size="5.7326px" stroke-width=".26458">1</tspan></tspan></text>
   <text x="17.3493" y="141.62064" style="line-height:1.25" xml:space="preserve"><tspan x="17.3493" y="141.62064" font-family="'Times New Roman'" font-size="8.8194px" stroke-width=".26458">t<tspan baseline-shift="sub" font-size="5.7326px" stroke-width=".26458">cc</tspan></tspan></text>
  </g>
  <g fill="none" stroke="#000">
   <path d="m6.9837 115.87h61.228" stroke-dasharray="3, 1"/>
   <path d="m37.659 115.81-0.2727 30.85" stroke-dasharray="0.793749, 0.264583" stroke-width=".26458"/>
   <path d="m42.446 146.31v-30.258" marker-end="url(#marker2850)" marker-start="url(#marker2738)" stroke-width=".5"/>
  </g>
  <text x="44.187958" y="134.91487" fill="#000000" font-family="'Times New Roman'" font-size="8.8194px" stroke-width=".26458" style="line-height:1.25" xml:space="preserve"><tspan x="44.187958" y="134.91487" font-family="'Times New Roman'" font-size="8.8194px" stroke-width=".26458">h</tspan></text>
  <g fill="none" stroke="#000">
   <path d="m81.883 115.86h61.228" stroke-dasharray="3, 1"/>
   <path d="m112.56 115.81-0.2727 30.85" stroke-dasharray="0.79375, 0.264583" stroke-width=".26458"/>
   <path d="m107.73 112.75c-0.6165-0.29867-1.3738-0.28792-1.9815 0.0281-0.60777 0.31604-1.0515 0.9298-1.161 1.606-0.0404 0.24917-0.0377 0.50462 0 0.75421 0.0258 0.17109 0.068 0.3397 0.1257 0.50281" stroke-width=".26458px"/>
   <path d="m116.66 113.01c0.47116-3e-3 0.94267 0.083 1.3827 0.25141 0.32851 0.12569 0.64127 0.29845 0.90627 0.52973 0.26501 0.23127 0.48122 0.52271 0.60216 0.85299 0.14708 0.40166 0.14708 0.85537 0 1.257" stroke-width=".26458px"/>
   <path d="m110 121.55c0.45882 0.8778 1.1628 1.6258 2.0112 2.1369 0.0606 0.0365 0.12419 0.0726 0.19447 0.0809 0.0351 4e-3 0.0715 8.9e-4 0.1043-0.0124 0.0328-0.0133 0.0617-0.0372 0.0783-0.0684 0.0205-0.0385 0.0205-0.0872 0-0.12571l0.1257-0.1257" stroke-width=".26458"/>
   <path d="m110.36 120.64c0.45882 0.8778 1.1628 1.6258 2.0112 2.1369 0.0606 0.0365 0.12419 0.0726 0.19447 0.0809 0.0352 4e-3 0.0715 8.9e-4 0.1043-0.0124 0.0328-0.0133 0.0617-0.0372 0.0783-0.0684 0.0205-0.0385 0.0205-0.0872 0-0.12571l0.1257-0.1257" stroke-width=".26458"/>
  </g>
  <g fill="#000000" font-family="sans-serif">
   <text x="112.92817" y="129.26418" font-size="8.8194px" stroke-width=".26458" style="line-height:1.25" xml:space="preserve"><tspan x="112.92817" y="129.26418" font-family="'Times New Roman'" font-size="8.8194px" stroke-width=".26458">w</tspan></text>
   <text font-size="10.583px" style="line-height:1.25;shape-inside:url(#rect3656);white-space:pre" xml:space="preserve"><tspan x="183.17383" y="109.25898" visibility="hidden"><tspan dx="0 6.5732212">β1</tspan></tspan></text>
   <text transform="translate(-59.656 14.702)" font-size="8.8194px" style="line-height:1.25;shape-inside:url(#rect3664);white-space:pre" xml:space="preserve"><tspan x="183.97656" y="98.431008"><tspan font-family="'Times New Roman'">β</tspan><tspan baseline-shift="sub" font-size="65%">1</tspan></tspan></text>
  </g>
  <g fill="none" stroke="#00f">
   <path d="m85.133 97.997c8.8942 5.9781 17.788 11.956 26.681 17.933" marker-start="url(#marker2634-1)"/>
   <path d="m131.08 101.59-19.05 14.22" marker-start="url(#Arrow2Mstart-8)"/>
   <path d="m111.88 116.24-9.8861 25.878" marker-end="url(#Arrow1Mend-1)"/>
  </g>
  <g fill="#000000" font-family="sans-serif">
   <g font-size="8.8194px" stroke-width=".26458">
    <text x="91.147888" y="93.815269" style="line-height:1.25" xml:space="preserve"><tspan x="91.147888" y="93.815269" font-family="'Times New Roman'" font-size="8.8194px" stroke-width=".26458">t<tspan baseline-shift="sub" font-size="5.7326px" stroke-width=".26458">2</tspan></tspan></text>
    <text x="125.37672" y="98.021744" style="line-height:1.25" xml:space="preserve"><tspan x="125.37672" y="98.021744" font-family="'Times New Roman'" font-size="8.8194px" stroke-width=".26458">t<tspan baseline-shift="sub" font-size="5.7326px" stroke-width=".26458">1</tspan></tspan></text>
    <text x="91.560867" y="141.90811" style="line-height:1.25" xml:space="preserve"><tspan x="91.560867" y="141.90811" font-family="'Times New Roman'" font-size="8.8194px" stroke-width=".26458">t<tspan baseline-shift="sub" font-size="5.7326px" stroke-width=".26458">cc</tspan></tspan></text>
   </g>
   <text transform="translate(-91.16 14.253)" font-size="8.8194px" style="line-height:1.25;shape-inside:url(#rect3664-8);white-space:pre" xml:space="preserve"><tspan x="183.97656" y="98.431008"><tspan font-family="'Times New Roman'">β</tspan><tspan baseline-shift="sub" font-size="65%">2</tspan></tspan></text>
  </g>
  <g fill="none">
   <g>
    <ellipse cx="212.27" cy="30.56" rx="40.027" ry="38.084" stroke="#969696" stroke-width=".5"/>
    <path d="m236.18 60.846-9.7152 14.767" marker-end="url(#EmptyTriangleOutL)" stroke="#969696" stroke-width=".5"/>
    <path transform="scale(-1)" d="m-168.53-92.033a42.289 40.889 0 0 1-47.148 13.86 42.289 40.889 0 0 1-28.713-38.725" stroke="#0001ff" stroke-miterlimit="10"/>
    <path d="m159.68 116.19h84.156" stroke="#00f" stroke-width=".97127"/>
    <path d="m159.68 116.19 8.513-23.813v1e-6" stroke="#00f"/>
   </g>
   <g>
    <path d="m168.15 115.67 0.38695-24.17" stroke="#000" stroke-dasharray="3.84834, 0.962086" stroke-width=".96209"/>
    <rect x="165.65" y="113.01" width="4.5978" height="2.9487" stroke="#000" stroke-miterlimit="10" stroke-width=".18777"/>
    <g>
     <path d="m205.36 205.4 38.859-89.845" stroke="#969696" stroke-dasharray="3.84834, 1.92417, 0.962086, 1.92417" stroke-width=".96209"/>
     <path d="m205.37 205.41 0.37699-39.338" stroke="#000" stroke-dasharray="4, 1"/>
     <path d="m205.36 205.4-37.171-113.02" stroke="#969696" stroke-dasharray="7.69669, 3.84834" stroke-width=".96209"/>
    </g>
   </g>
  </g>
  <g stroke-width=".26458">
   <text x="235.39555" y="112.88035" fill="#000000" font-family="sans-serif" font-size="10.583px" style="line-height:1.25" xml:space="preserve"><tspan x="235.39555" y="112.88035" font-family="'Times New Roman'" font-size="8.8194px" stroke-width=".26458">α<tspan baseline-shift="sub" font-size="5.7326px" stroke-width=".26458">1</tspan></tspan></text>
   <path d="m165.87 100.08c0.45882 0.8778 1.1628 1.6258 2.0112 2.1369 0.0606 0.0365 0.12419 0.0726 0.19447 0.0809 0.0351 4e-3 0.0715 8.9e-4 0.1043-0.0124 0.0328-0.0133 0.0617-0.0372 0.0783-0.0684 0.0205-0.0385 0.0205-0.0872 0-0.12571l0.1257-0.1257" fill="none" stroke="#000"/>
   <path d="m166.23 99.17c0.45882 0.8778 1.1628 1.6258 2.0112 2.1369 0.0606 0.0365 0.12419 0.0726 0.19447 0.0809 0.0352 4e-3 0.0715 8.9e-4 0.1043-0.0124 0.0328-0.0133 0.0617-0.0372 0.0783-0.0684 0.0205-0.0385 0.0205-0.0872 0-0.12571l0.1257-0.1257" fill="none" stroke="#000"/>
   <text x="157.68221" y="101.77646" fill="#000000" font-family="sans-serif" font-size="8.8194px" style="line-height:1.25" xml:space="preserve"><tspan x="157.68221" y="101.77646" font-family="'Times New Roman'" font-size="8.8194px" stroke-width=".26458">w</tspan></text>
  </g>
  <path d="m142.54 91.957h61.228" fill="none" stroke="#000" stroke-dasharray="3, 1"/>
  <path d="m171.57 89.044c0.47116-0.0027 0.94267 0.08304 1.3827 0.25141 0.32851 0.12569 0.64127 0.29845 0.90627 0.52973 0.26501 0.23128 0.48122 0.52271 0.60216 0.85299 0.14708 0.40166 0.14708 0.85537 0 1.257" fill="none" stroke="#000" stroke-width=".26458px"/>
  <text transform="translate(-5.7994 -9.2605)" fill="#000000" font-family="sans-serif" font-size="8.8194px" style="line-height:1.25;shape-inside:url(#rect3664-9);white-space:pre" xml:space="preserve"><tspan x="183.97656" y="98.431008"><tspan font-family="'Times New Roman'">β</tspan><tspan baseline-shift="sub" font-size="65%">1</tspan></tspan></text>
  <g fill="none">
   <path transform="scale(-1)" d="m-271.73-91.92a42.289 40.889 0 0 1-47.148 13.86 42.289 40.889 0 0 1-28.713-38.725" stroke="#0001ff" stroke-miterlimit="10"/>
   <g>
    <path d="m262.88 116.08h84.156" stroke="#00f" stroke-width=".97127"/>
    <path d="m308.56 205.28 38.859-89.845" stroke="#969696" stroke-dasharray="3.84834, 1.92417, 0.962086, 1.92417" stroke-width=".96209"/>
    <path d="m308.57 205.32 0.36743-89.438" stroke="#000" stroke-dasharray="4, 1"/>
   </g>
  </g>
  <text x="338.59372" y="112.7673" fill="#000000" font-family="sans-serif" font-size="10.583px" stroke-width=".26458" style="line-height:1.25" xml:space="preserve"><tspan x="338.59372" y="112.7673" font-family="'Times New Roman'" font-size="8.8194px" stroke-width=".26458">α<tspan baseline-shift="sub" font-size="5.7326px" stroke-width=".26458">1</tspan></tspan></text>
  <rect x="304.93" y="116.52" width="7.5216" height="4.8238" fill="none" stroke="#000" stroke-miterlimit="10" stroke-width=".30717"/>
  <path d="m350.89 115.67-3.0432-14.939" fill="none" marker-end="url(#Arrow1Lend)" stroke="#000" stroke-width=".26458px"/>
  <text x="349.92743" y="101.05718" fill="#000000" font-family="sans-serif" font-size="8.8194px" stroke-width=".26458" style="line-height:1.25" xml:space="preserve"><tspan x="349.92743" y="101.05718" font-family="'Times New Roman'" font-size="8.8194px" stroke-width=".26458">t<tspan baseline-shift="sub" font-size="5.7326px" stroke-width=".26458">1</tspan></tspan></text>
  <g fill="none">
   <path d="m263.22 115.73 8.513-23.813v1e-6" stroke="#00f"/>
   <path d="m271.34 116.09 0.38695-24.17" stroke="#000" stroke-dasharray="3.84834, 0.962086" stroke-width=".96209"/>
   <rect x="268.91" y="113.01" width="4.5978" height="2.9487" stroke="#000" stroke-miterlimit="10" stroke-width=".18777"/>
  </g>
  <text x="324.17371" y="122.92716" fill="#000000" font-family="'Times New Roman'" font-size="8.8194px" stroke-width=".26458" style="line-height:1.25" xml:space="preserve"><tspan x="324.17371" y="122.92716">90-α<tspan baseline-shift="sub" font-size="65%">1</tspan></tspan></text>
  <text x="309.05545" y="186.63264" fill="#000000" font-family="sans-serif" font-size="10.583px" stroke-width=".26458" style="line-height:1.25" xml:space="preserve"><tspan x="309.05545" y="186.63264" font-family="'Times New Roman'" font-size="8.8194px" stroke-width=".26458">α<tspan baseline-shift="sub" font-size="5.7326px" stroke-width=".26458">1</tspan></tspan></text>
  <g fill="none">
   <g>
    <path transform="scale(-1)" d="m-381.12-91.157a42.289 40.889 0 0 1-47.148 13.86 42.289 40.889 0 0 1-28.713-38.725" stroke="#0001ff" stroke-miterlimit="10"/>
    <path d="m372.27 115.32h84.156" stroke="#00f" stroke-width=".97127"/>
    <path d="m372.27 115.32 8.513-23.813v1e-6" stroke="#00f"/>
   </g>
   <g>
    <path d="m380.73 114.8 0.38695-24.17" stroke="#000" stroke-dasharray="3.84834, 0.962086" stroke-width=".96209"/>
    <rect x="378.23" y="112.13" width="4.5978" height="2.9487" stroke="#000" stroke-miterlimit="10" stroke-width=".18777"/>
    <g>
     <path d="m417.95 204.52 38.859-89.845" stroke="#969696" stroke-dasharray="3.84834, 1.92417, 0.962086, 1.92417" stroke-width=".96209"/>
     <path d="m417.96 204.54 0.37699-39.338" stroke="#000" stroke-dasharray="4, 1"/>
     <path d="m417.95 204.52-37.171-113.02" stroke="#969696" stroke-dasharray="7.69669, 3.84834" stroke-width=".96209"/>
    </g>
   </g>
  </g>
  <g stroke-width=".26458">
   <text x="447.98129" y="112.00435" fill="#000000" font-family="sans-serif" font-size="10.583px" style="line-height:1.25" xml:space="preserve"><tspan x="447.98129" y="112.00435" font-family="'Times New Roman'" font-size="8.8194px" stroke-width=".26458">α<tspan baseline-shift="sub" font-size="5.7326px" stroke-width=".26458">1</tspan></tspan></text>
   <path d="m378.45 99.207c0.45882 0.8778 1.1628 1.6258 2.0112 2.1369 0.0606 0.0365 0.12419 0.0726 0.19447 0.0809 0.0351 4e-3 0.0715 8.9e-4 0.1043-0.0124 0.0328-0.0133 0.0617-0.0372 0.0783-0.0684 0.0205-0.0385 0.0205-0.0872 0-0.12571l0.1257-0.1257" fill="none" stroke="#000"/>
   <path d="m378.82 98.294c0.45882 0.8778 1.1628 1.6258 2.0112 2.1369 0.0606 0.0365 0.12419 0.0726 0.19447 0.0809 0.0352 4e-3 0.0715 8.9e-4 0.1043-0.0124 0.0328-0.0133 0.0617-0.0372 0.0783-0.0684 0.0205-0.0385 0.0205-0.0872 0-0.12571l0.1257-0.1257" fill="none" stroke="#000"/>
   <text x="370.26794" y="100.90046" fill="#000000" font-family="sans-serif" font-size="8.8194px" style="line-height:1.25" xml:space="preserve"><tspan x="370.26794" y="100.90046" font-family="'Times New Roman'" font-size="8.8194px" stroke-width=".26458">w</tspan></text>
  </g>
  <path d="m355.12 91.081h61.228" fill="none" stroke="#000" stroke-dasharray="3, 1"/>
  <path d="m384.16 88.168c0.47116-0.0027 0.94267 0.08304 1.3827 0.25141 0.32851 0.12569 0.64127 0.29845 0.90627 0.52973 0.26501 0.23128 0.48122 0.52271 0.60216 0.85299 0.14708 0.40166 0.14708 0.85537 0 1.257" fill="none" stroke="#000" stroke-width=".26458px"/>
  <text transform="translate(206.79 -10.137)" fill="#000000" font-family="sans-serif" font-size="8.8194px" style="line-height:1.25;shape-inside:url(#rect3664-9-1);white-space:pre" xml:space="preserve"><tspan x="183.97656" y="98.431008"><tspan font-family="'Times New Roman'">β</tspan><tspan baseline-shift="sub" font-size="65%">1</tspan></tspan></text>
  <text x="419.18921" y="182.71695" fill="#000000" font-family="sans-serif" font-size="10.583px" stroke-width=".26458" style="line-height:1.25" xml:space="preserve"><tspan x="419.18921" y="182.71695" font-family="'Times New Roman'" font-size="8.8194px" stroke-width=".26458">α<tspan baseline-shift="sub" font-size="5.7326px" stroke-width=".26458">1</tspan></tspan></text>
  <path d="m389.67 115.36 0.38695-24.17" fill="none" stroke="#000" stroke-dasharray="3.84834, 0.962086" stroke-width=".96209"/>
  <path d="m390.63 79.308-10.898 10.059" fill="none" marker-start="url(#marker6208)" stroke="#000" stroke-width=".265"/>
  <text x="385.633" y="75.068016" fill="#000000" font-family="sans-serif" font-size="8.8194px" stroke-width=".26458" style="line-height:1.25" xml:space="preserve"><tspan x="385.633" y="75.068016" font-family="'Times New Roman'" font-size="8.8194px" stroke-width=".26458">t<tspan baseline-shift="sub" font-size="65%">1</tspan></tspan></text>
  <path d="m386.72 110.42c0.10136-0.48716 0.42505-0.92346 0.86189-1.1617 0.43683-0.23827 0.9789-0.27421 1.4434-0.0957 0.23703 0.0911 0.45344 0.23539 0.6287 0.41914" fill="none" stroke="#000" stroke-width=".5"/>
  <path d="m418.16 192.99c-0.17164-0.62933-0.67254-1.1588-1.2914-1.3651-0.61884-0.20628-1.3372-0.0832-1.8522 0.31725-0.279 0.21699-0.49853 0.50969-0.62873 0.83828" fill="none" stroke="#000" stroke-width=".5"/>
  <g fill="#000000" font-family="sans-serif" font-size="10.583px" stroke-width=".26458">
   <text x="391.33545" y="111.68087" style="line-height:1.25" xml:space="preserve"><tspan x="391.33545" y="111.68087" font-family="'Times New Roman'" font-size="8.8194px" stroke-width=".26458">x</tspan></text>
   <text x="413.43643" y="189.52808" style="line-height:1.25" xml:space="preserve"><tspan x="413.43643" y="189.52808" font-family="'Times New Roman'" font-size="8.8194px" stroke-width=".26458">x</tspan></text>
   <text x="102.37515" y="1.688643" style="line-height:1.25" xml:space="preserve"><tspan x="102.37515" y="1.688643" font-family="'Times New Roman'" font-weight="bold" stroke-width=".26458">(a)</tspan></text>
   <text x="7.6227489" y="71.732864" style="line-height:1.25" xml:space="preserve"><tspan x="7.6227489" y="71.732864" font-family="'Times New Roman'" font-weight="bold" stroke-width=".26458">(b)</tspan></text>
   <text x="74.97776" y="72.00267" style="line-height:1.25" xml:space="preserve"><tspan x="74.97776" y="72.00267" font-family="'Times New Roman'" font-weight="bold" stroke-width=".26458">(c)</tspan></text>
   <text x="147.6461" y="72.289131" style="line-height:1.25" xml:space="preserve"><tspan x="147.6461" y="72.289131" font-family="'Times New Roman'" font-weight="bold" stroke-width=".26458">(d)</tspan></text>
   <text x="256.76663" y="72.15271" style="line-height:1.25" xml:space="preserve"><tspan x="256.76663" y="72.15271" font-family="'Times New Roman'" font-weight="bold" stroke-width=".26458">(e)</tspan></text>
   <text x="369.56049" y="72.203972" style="line-height:1.25" xml:space="preserve"><tspan x="369.56049" y="72.203972" font-family="'Times New Roman'" font-weight="bold" stroke-width=".26458">(f)</tspan></text>
  </g>
 </g>
</svg>
